<svg width="215" height="51" viewBox="0 0 215 51" fill="none" xmlns="http://www.w3.org/2000/svg">
<path d="M11.286 39.418C9.25933 39.418 7.486 39.0253 5.966 38.24C4.47133 37.4293 3.31867 36.2893 2.508 34.82C1.69733 33.3507 1.292 31.6153 1.292 29.614C1.292 27.6127 1.69733 25.89 2.508 24.446C3.31867 23.002 4.47133 21.9 5.966 21.14C7.486 20.3547 9.25933 19.962 11.286 19.962C12.4767 19.962 13.68 20.1393 14.896 20.494C16.112 20.8487 17.1 21.3553 17.86 22.014L16.264 25.966C15.6307 25.4593 14.9213 25.0667 14.136 24.788C13.3507 24.484 12.5907 24.332 11.856 24.332C10.3613 24.332 9.196 24.8007 8.36 25.738C7.54933 26.65 7.144 27.9547 7.144 29.652C7.144 31.324 7.54933 32.6413 8.36 33.604C9.196 34.5413 10.3613 35.01 11.856 35.01C12.5653 35.01 13.3127 34.8707 14.098 34.592C14.9087 34.3133 15.6307 33.908 16.264 33.376L17.86 37.328C17.1 37.9867 16.112 38.506 14.896 38.886C13.68 39.2407 12.4767 39.418 11.286 39.418ZM20.1225 16.732V11.374H26.3165V16.732H20.1225ZM20.3505 39V20.342H26.0885V39H20.3505ZM39.6005 39.418C37.5738 39.418 35.8005 39.0253 34.2805 38.24C32.7858 37.4293 31.6331 36.2893 30.8225 34.82C30.0118 33.3507 29.6065 31.6153 29.6065 29.614C29.6065 27.6127 30.0118 25.89 30.8225 24.446C31.6331 23.002 32.7858 21.9 34.2805 21.14C35.8005 20.3547 37.5738 19.962 39.6005 19.962C40.7911 19.962 41.9945 20.1393 43.2105 20.494C44.4265 20.8487 45.4145 21.3553 46.1745 22.014L44.5785 25.966C43.9451 25.4593 43.2358 25.0667 42.4505 24.788C41.6651 24.484 40.9051 24.332 40.1705 24.332C38.6758 24.332 37.5105 24.8007 36.6745 25.738C35.8638 26.65 35.4585 27.9547 35.4585 29.652C35.4585 31.324 35.8638 32.6413 36.6745 33.604C37.5105 34.5413 38.6758 35.01 40.1705 35.01C40.8798 35.01 41.6271 34.8707 42.4125 34.592C43.2231 34.3133 43.9451 33.908 44.5785 33.376L46.1745 37.328C45.4145 37.9867 44.4265 38.506 43.2105 38.886C41.9945 39.2407 40.7911 39.418 39.6005 39.418ZM54.8987 39.418C53.5054 39.418 52.2767 39.152 51.2127 38.62C50.1487 38.088 49.3001 37.366 48.6667 36.454C48.0587 35.542 47.7547 34.516 47.7547 33.376C47.7547 32.0333 48.1094 30.9567 48.8187 30.146C49.5281 29.3353 50.6807 28.7653 52.2767 28.436C53.8727 28.0813 55.9881 27.904 58.6227 27.904H59.9907V27.258C59.9907 26.1433 59.7374 25.358 59.2307 24.902C58.7241 24.4207 57.8627 24.18 56.6467 24.18C55.6334 24.18 54.5567 24.3447 53.4167 24.674C52.3021 24.978 51.1874 25.4467 50.0727 26.08L48.5147 22.242C49.1734 21.8113 49.9714 21.4187 50.9087 21.064C51.8714 20.7093 52.8721 20.4433 53.9107 20.266C54.9494 20.0633 55.9374 19.962 56.8747 19.962C59.7627 19.962 61.9161 20.6207 63.3347 21.938C64.7534 23.23 65.4627 25.244 65.4627 27.98V39H60.1047V36.188C59.7247 37.176 59.0787 37.9613 58.1667 38.544C57.2801 39.1267 56.1907 39.418 54.8987 39.418ZM56.1907 35.58C57.2547 35.58 58.1541 35.2127 58.8887 34.478C59.6234 33.7433 59.9907 32.7933 59.9907 31.628V30.868H58.6607C56.7101 30.868 55.3294 31.0453 54.5187 31.4C53.7081 31.7293 53.3027 32.312 53.3027 33.148C53.3027 33.8573 53.5434 34.44 54.0247 34.896C54.5314 35.352 55.2534 35.58 56.1907 35.58ZM77.0011 39.418C75.3797 39.418 73.9484 39.0253 72.7071 38.24C71.4911 37.4293 70.5411 36.302 69.8571 34.858C69.1731 33.3887 68.8311 31.6533 68.8311 29.652C68.8311 27.6507 69.1731 25.928 69.8571 24.484C70.5411 23.04 71.4911 21.9253 72.7071 21.14C73.9484 20.3547 75.3797 19.962 77.0011 19.962C78.2424 19.962 79.3824 20.228 80.4211 20.76C81.4597 21.292 82.2451 22.0013 82.7771 22.888V12.21H88.5151V39H82.8911V36.188C82.3844 37.176 81.5991 37.9613 80.5351 38.544C79.4964 39.1267 78.3184 39.418 77.0011 39.418ZM78.7111 35.124C79.9271 35.124 80.9151 34.6807 81.6751 33.794C82.4604 32.9073 82.8531 31.5267 82.8531 29.652C82.8531 27.8027 82.4604 26.4473 81.6751 25.586C80.9151 24.6993 79.9271 24.256 78.7111 24.256C77.4951 24.256 76.5071 24.6993 75.7471 25.586C74.9871 26.4473 74.6071 27.8027 74.6071 29.652C74.6071 31.5267 74.9871 32.9073 75.7471 33.794C76.5071 34.6807 77.4951 35.124 78.7111 35.124ZM99.2444 39.418C97.8511 39.418 96.6224 39.152 95.5584 38.62C94.4944 38.088 93.6458 37.366 93.0124 36.454C92.4044 35.542 92.1004 34.516 92.1004 33.376C92.1004 32.0333 92.4551 30.9567 93.1644 30.146C93.8738 29.3353 95.0264 28.7653 96.6224 28.436C98.2184 28.0813 100.334 27.904 102.968 27.904H104.336V27.258C104.336 26.1433 104.083 25.358 103.576 24.902C103.07 24.4207 102.208 24.18 100.992 24.18C99.9791 24.18 98.9024 24.3447 97.7624 24.674C96.6478 24.978 95.5331 25.4467 94.4184 26.08L92.8604 22.242C93.5191 21.8113 94.3171 21.4187 95.2544 21.064C96.2171 20.7093 97.2178 20.4433 98.2564 20.266C99.2951 20.0633 100.283 19.962 101.22 19.962C104.108 19.962 106.262 20.6207 107.68 21.938C109.099 23.23 109.808 25.244 109.808 27.98V39H104.45V36.188C104.07 37.176 103.424 37.9613 102.512 38.544C101.626 39.1267 100.536 39.418 99.2444 39.418ZM100.536 35.58C101.6 35.58 102.5 35.2127 103.234 34.478C103.969 33.7433 104.336 32.7933 104.336 31.628V30.868H103.006C101.056 30.868 99.6751 31.0453 98.8644 31.4C98.0538 31.7293 97.6484 32.312 97.6484 33.148C97.6484 33.8573 97.8891 34.44 98.3704 34.896C98.8771 35.352 99.5991 35.58 100.536 35.58Z" fill="white"/>
<path d="M138.4 39L126.354 12.21H132.662L140.946 31.438L149.23 12.21H155.272L143.226 39H138.4ZM157.307 39V12.21H169.543C172.533 12.21 174.838 12.97 176.459 14.49C178.081 15.9847 178.891 18.0747 178.891 20.76C178.891 23.4453 178.081 25.548 176.459 27.068C174.838 28.588 172.533 29.348 169.543 29.348H163.197V39H157.307ZM163.197 24.788H168.555C171.671 24.788 173.229 23.4453 173.229 20.76C173.229 18.1253 171.671 16.808 168.555 16.808H163.197V24.788ZM182.542 39V12.21H186.912L200.288 29.272V12.21H205.76V39H201.428L188.014 21.9V39H182.542Z" fill="#1DAFFF"/>
<rect x="117" y="7" width="7.13268" height="35.0625" fill="#EF5DA8"/>
</svg>
