<svg width="215" height="51" viewBox="0 0 215 51" fill="none" xmlns="http://www.w3.org/2000/svg">
<path fill-rule="evenodd" clip-rule="evenodd" d="M0.0528435 10.6022C0.109881 22.04 0.0922667 21.7545 0.877793 23.9916C1.6348 26.1469 3.23241 28.3351 4.97807 29.6073C6.24241 30.5287 8.13416 31.3949 9.88108 31.8522C11.1827 32.1931 11.4513 32.2162 14.2048 32.2235C17.4917 32.2321 18.4468 32.0766 20.8452 31.1424C24.442 29.7414 27.2288 26.8093 28.3357 23.2606C28.9219 21.3815 28.9535 20.7115 28.9535 10.1511V0L24.3052 0.0350849L19.6569 0.070037L19.587 10.2367L19.5171 20.4033L19.1979 21.1538C18.7907 22.1111 17.9219 23.0499 17.058 23.4661C15.6975 24.1214 13.4206 24.1509 11.9494 23.5323C10.768 23.0355 9.87311 21.8591 9.53899 20.3636C9.43051 19.878 9.38172 16.6074 9.38172 9.83148V0.00358829H4.69079H0L0.0528435 10.6022ZM34.126 16.016V32.0319H38.8092H43.4925L43.4953 23.0945L43.4981 14.1572L49.7341 23.0945L55.9702 32.0319H60.6355H65.301V16.0177V0.00358829H60.6187H55.9365L55.9006 9.01589L55.8646 18.0281L49.6998 9.04911L43.5348 0.070037L38.8305 0.0350849L34.126 0V16.016ZM27.8207 36.0888C25.7044 36.5772 23.8132 37.9834 22.849 39.7859C22.4105 40.6056 21.9629 42.2604 21.9659 43.0504C21.9733 44.8907 22.8009 46.7712 24.2003 48.1269C25.6855 49.5658 27.4007 50.2388 29.5826 50.2388C31.7132 50.2388 33.3908 49.5958 34.8774 48.2093C36.3822 46.8058 37.102 45.1349 37.0945 43.0623C37.089 41.5388 36.7559 40.4166 35.967 39.2652C34.1733 36.6466 30.9126 35.3753 27.8207 36.0888ZM42.5427 36.3586C40.774 36.8111 39.2082 37.9353 38.4136 39.3233C37.8792 40.2567 37.4807 41.8536 37.4835 43.0504C37.4925 46.742 39.6117 49.3283 43.1187 49.9276C46.1569 50.4467 49.0511 49.4042 50.5038 47.2675C50.9239 46.6495 51.6008 45.0712 51.6008 44.7096C51.6008 44.6808 50.5418 44.6571 49.2476 44.6571H46.8945L46.4555 45.1763C45.204 46.6568 42.8333 46.2397 42.2659 44.4392C41.9658 43.4869 42.0452 42.1438 42.4458 41.394C42.9101 40.5252 43.3621 40.231 44.3359 40.164C45.2846 40.0987 46.1366 40.4513 46.5194 41.0673L46.7681 41.4676H49.1845C50.5134 41.4676 51.6008 41.4358 51.6008 41.3969C51.6008 41.3581 51.4715 40.9612 51.3132 40.515C50.5654 38.4046 48.88 36.9117 46.611 36.35C45.6127 36.1028 43.5251 36.1072 42.5427 36.3586ZM0.434633 43.1287V49.9895L5.01302 49.9458C9.38298 49.9042 9.62721 49.8885 10.3772 49.6022C11.23 49.2766 12.0414 48.6135 12.4107 47.9401C12.7837 47.2603 12.8297 45.6254 12.496 44.9113C12.0998 44.0636 11.5647 43.521 10.8489 43.2412C10.5039 43.1062 10.2229 42.966 10.2247 42.9294C10.2264 42.8929 10.4829 42.7511 10.7947 42.6143C12.7549 41.7545 13.0177 38.6198 11.2459 37.2315C10.1972 36.4096 9.90974 36.3678 4.94313 36.3154L0.434633 36.268V43.1287ZM13.1563 43.1288V49.973H17.5599H21.9636V48.3782V46.7835H19.7967H17.6298V41.534V36.2846H15.393H13.1563V43.1288ZM52.0202 43.1288V49.973H54.2543H56.4884L56.526 47.0396L56.5636 44.1061L58.6507 47.0396L60.7377 49.973H63.3689C64.816 49.973 66 49.9423 66 49.9048C66 49.8674 64.8802 48.3275 63.5117 46.4827C62.1431 44.6381 60.9754 43.0536 60.9167 42.9617C60.828 42.8233 63.1129 39.651 65.4148 36.7165L65.7535 36.2846L63.1857 36.288L60.6178 36.2914L58.5907 39.1269L56.5636 41.9622L56.5259 39.1234L56.4883 36.2846H54.2542H52.0202V43.1288ZM30.7009 38.6634C31.3546 38.9518 32.089 39.6485 32.3001 40.1805C32.7082 41.2095 32.3076 42.5823 31.3893 43.3018L30.8532 43.7219L31.1616 45.0215C31.5123 46.5003 31.5406 46.9289 31.3021 47.1556C31.1916 47.2606 30.6017 47.3151 29.5763 47.3151C28.2088 47.3151 27.988 47.2833 27.7713 47.0558C27.5348 46.8073 27.5407 46.7336 27.9132 45.2816L28.3019 43.7668L27.7333 43.2786C27.4207 43.01 27.064 42.5883 26.9408 42.3414C26.6253 41.7093 26.6516 40.5152 26.995 39.8752C27.6665 38.6238 29.3576 38.071 30.7009 38.6634ZM7.56043 39.9358C7.93383 40.2571 7.93579 40.9816 7.56434 41.3347C7.32864 41.5587 7.09839 41.6005 6.09646 41.6005H4.90818V40.5871V39.5737L6.09255 39.6328C6.98278 39.6772 7.34724 39.7524 7.56043 39.9358ZM7.83597 44.8497C8.02973 45.0163 8.12354 45.2611 8.12354 45.6004C8.12354 46.357 7.78746 46.5177 6.20508 46.5177H4.90818V45.5051V44.4924L6.22829 44.5473C7.26378 44.5904 7.61048 44.6557 7.83597 44.8497Z" fill="black"/>
<path d="M111.4 0.175998L97.072 50H84.184L69.352 0.175998H80.656L90.808 41.216L100.6 0.175998H111.4ZM129.716 0.175998C136.196 0.175998 141.212 1.52 144.764 4.208C148.364 6.896 150.164 10.904 150.164 16.232C150.164 21.8 148.388 26 144.836 28.832C141.284 31.616 136.532 33.008 130.58 33.008H124.892V50H114.308V0.175998H129.716ZM129.716 25.232C132.788 25.232 135.14 24.536 136.772 23.144C138.404 21.752 139.22 19.448 139.22 16.232C139.22 10.616 136.004 7.808 129.572 7.808H124.892V25.232H129.716ZM192.912 50H179.304L163.464 10.472C163.896 13.88 164.232 17.096 164.472 20.12C164.76 23.096 164.904 26.6 164.904 30.632V50H155.328V0.175998H168.648L184.776 39.776C183.816 33.344 183.336 27.44 183.336 22.064V0.175998H192.912V50Z" fill="black"/>
<path d="M206.872 2.856C207.6 2.856 208.268 3.024 208.876 3.36C209.484 3.696 209.964 4.168 210.316 4.776C210.668 5.376 210.844 6.052 210.844 6.804C210.844 7.556 210.668 8.236 210.316 8.844C209.964 9.444 209.484 9.912 208.876 10.248C208.268 10.584 207.6 10.752 206.872 10.752C206.144 10.752 205.472 10.584 204.856 10.248C204.248 9.912 203.764 9.444 203.404 8.844C203.052 8.236 202.876 7.556 202.876 6.804C202.876 6.052 203.052 5.376 203.404 4.776C203.764 4.168 204.248 3.696 204.856 3.36C205.472 3.024 206.144 2.856 206.872 2.856ZM206.872 3.732C206.304 3.732 205.792 3.864 205.336 4.128C204.888 4.384 204.536 4.744 204.28 5.208C204.024 5.672 203.896 6.204 203.896 6.804C203.896 7.404 204.024 7.936 204.28 8.4C204.536 8.864 204.888 9.224 205.336 9.48C205.792 9.736 206.304 9.864 206.872 9.864C207.44 9.864 207.948 9.736 208.396 9.48C208.844 9.224 209.196 8.864 209.452 8.4C209.708 7.936 209.836 7.404 209.836 6.804C209.836 6.204 209.708 5.672 209.452 5.208C209.196 4.744 208.84 4.384 208.384 4.128C207.936 3.864 207.432 3.732 206.872 3.732ZM206.896 4.452C207.48 4.452 207.988 4.644 208.42 5.028L207.88 5.724C207.736 5.612 207.596 5.536 207.46 5.496C207.324 5.448 207.176 5.424 207.016 5.424C206.728 5.424 206.496 5.536 206.32 5.76C206.152 5.976 206.068 6.32 206.068 6.792C206.068 7.256 206.148 7.6 206.308 7.824C206.476 8.048 206.704 8.16 206.992 8.16C207.184 8.16 207.356 8.132 207.508 8.076C207.668 8.012 207.824 7.92 207.976 7.8L208.468 8.532C208.02 8.94 207.5 9.144 206.908 9.144C206.268 9.144 205.76 8.94 205.384 8.532C205.008 8.124 204.82 7.544 204.82 6.792C204.82 6.312 204.908 5.896 205.084 5.544C205.268 5.192 205.516 4.924 205.828 4.74C206.148 4.548 206.504 4.452 206.896 4.452Z" fill="black"/>
</svg>
