<svg width="215" height="86" viewBox="0 0 215 86" fill="none" xmlns="http://www.w3.org/2000/svg">
<path fill-rule="evenodd" clip-rule="evenodd" d="M0.0528435 27.6022C0.109881 39.04 0.0922667 38.7545 0.877793 40.9916C1.6348 43.1469 3.23241 45.3351 4.97807 46.6073C6.24241 47.5287 8.13416 48.3949 9.88108 48.8522C11.1827 49.1931 11.4513 49.2162 14.2048 49.2235C17.4917 49.2321 18.4468 49.0766 20.8452 48.1424C24.442 46.7414 27.2288 43.8093 28.3357 40.2606C28.9219 38.3815 28.9535 37.7115 28.9535 27.1511V17L24.3052 17.0351L19.6569 17.07L19.587 27.2367L19.5171 37.4033L19.1979 38.1538C18.7907 39.1111 17.9219 40.0499 17.058 40.4661C15.6975 41.1214 13.4206 41.1509 11.9494 40.5323C10.768 40.0355 9.87311 38.8591 9.53899 37.3636C9.43051 36.878 9.38172 33.6074 9.38172 26.8315V17.0036H4.69079H0L0.0528435 27.6022ZM34.126 33.016V49.0319H38.8092H43.4925L43.4953 40.0945L43.4981 31.1572L49.7341 40.0945L55.9702 49.0319H60.6355H65.301V33.0177V17.0036H60.6187H55.9365L55.9006 26.0159L55.8646 35.0281L49.6998 26.0491L43.5348 17.07L38.8305 17.0351L34.126 17V33.016ZM27.8207 53.0888C25.7044 53.5772 23.8132 54.9834 22.849 56.7859C22.4105 57.6056 21.9629 59.2604 21.9659 60.0504C21.9733 61.8907 22.8009 63.7712 24.2003 65.1269C25.6855 66.5658 27.4007 67.2388 29.5826 67.2388C31.7132 67.2388 33.3908 66.5958 34.8774 65.2093C36.3822 63.8058 37.102 62.1349 37.0945 60.0623C37.089 58.5388 36.7559 57.4166 35.967 56.2652C34.1733 53.6466 30.9126 52.3753 27.8207 53.0888ZM42.5427 53.3586C40.774 53.8111 39.2082 54.9353 38.4136 56.3233C37.8792 57.2567 37.4807 58.8536 37.4835 60.0504C37.4925 63.742 39.6117 66.3283 43.1187 66.9276C46.1569 67.4467 49.0511 66.4042 50.5038 64.2675C50.9239 63.6495 51.6008 62.0712 51.6008 61.7096C51.6008 61.6808 50.5418 61.6571 49.2476 61.6571H46.8945L46.4555 62.1763C45.204 63.6568 42.8333 63.2397 42.2659 61.4392C41.9658 60.4869 42.0452 59.1438 42.4458 58.394C42.9101 57.5252 43.3621 57.231 44.3359 57.164C45.2846 57.0987 46.1366 57.4513 46.5194 58.0673L46.7681 58.4676H49.1845C50.5134 58.4676 51.6008 58.4358 51.6008 58.3969C51.6008 58.3581 51.4715 57.9612 51.3132 57.515C50.5654 55.4046 48.88 53.9117 46.611 53.35C45.6127 53.1028 43.5251 53.1072 42.5427 53.3586ZM0.434633 60.1287V66.9895L5.01302 66.9458C9.38298 66.9042 9.62721 66.8885 10.3772 66.6022C11.23 66.2766 12.0414 65.6135 12.4107 64.9401C12.7837 64.2603 12.8297 62.6254 12.496 61.9113C12.0998 61.0636 11.5647 60.521 10.8489 60.2412C10.5039 60.1062 10.2229 59.966 10.2247 59.9294C10.2264 59.8929 10.4829 59.7511 10.7947 59.6143C12.7549 58.7545 13.0177 55.6198 11.2459 54.2315C10.1972 53.4096 9.90974 53.3678 4.94313 53.3154L0.434633 53.268V60.1287ZM13.1563 60.1288V66.973H17.5599H21.9636V65.3782V63.7835H19.7967H17.6298V58.534V53.2846H15.393H13.1563V60.1288ZM52.0202 60.1288V66.973H54.2543H56.4884L56.526 64.0396L56.5636 61.1061L58.6507 64.0396L60.7377 66.973H63.3689C64.816 66.973 66 66.9423 66 66.9048C66 66.8674 64.8802 65.3275 63.5117 63.4827C62.1431 61.6381 60.9754 60.0536 60.9167 59.9617C60.828 59.8233 63.1129 56.651 65.4148 53.7165L65.7535 53.2846L63.1857 53.288L60.6178 53.2914L58.5907 56.1269L56.5636 58.9622L56.5259 56.1234L56.4883 53.2846H54.2542H52.0202V60.1288ZM30.7009 55.6634C31.3546 55.9518 32.089 56.6485 32.3001 57.1805C32.7082 58.2095 32.3076 59.5823 31.3893 60.3018L30.8532 60.7219L31.1616 62.0215C31.5123 63.5003 31.5406 63.9289 31.3021 64.1556C31.1916 64.2606 30.6017 64.3151 29.5763 64.3151C28.2088 64.3151 27.988 64.2833 27.7713 64.0558C27.5348 63.8073 27.5407 63.7336 27.9132 62.2816L28.3019 60.7668L27.7333 60.2786C27.4207 60.01 27.064 59.5883 26.9408 59.3414C26.6253 58.7093 26.6516 57.5152 26.995 56.8752C27.6665 55.6238 29.3576 55.071 30.7009 55.6634ZM7.56043 56.9358C7.93383 57.2571 7.93579 57.9816 7.56434 58.3347C7.32864 58.5587 7.09839 58.6005 6.09646 58.6005H4.90818V57.5871V56.5737L6.09255 56.6328C6.98278 56.6772 7.34724 56.7524 7.56043 56.9358ZM7.83597 61.8497C8.02973 62.0163 8.12354 62.2611 8.12354 62.6004C8.12354 63.357 7.78746 63.5177 6.20508 63.5177H4.90818V62.5051V61.4924L6.22829 61.5473C7.26378 61.5904 7.61048 61.6557 7.83597 61.8497Z" fill="white"/>
<path d="M114.4 17.176L100.072 67H87.184L72.352 17.176H83.656L93.808 58.216L103.6 17.176H114.4ZM132.716 17.176C139.196 17.176 144.212 18.52 147.764 21.208C151.364 23.896 153.164 27.904 153.164 33.232C153.164 38.8 151.388 43 147.836 45.832C144.284 48.616 139.532 50.008 133.58 50.008H127.892V67H117.308V17.176H132.716ZM132.716 42.232C135.788 42.232 138.14 41.536 139.772 40.144C141.404 38.752 142.22 36.448 142.22 33.232C142.22 27.616 139.004 24.808 132.572 24.808H127.892V42.232H132.716ZM195.912 67H182.304L166.464 27.472C166.896 30.88 167.232 34.096 167.472 37.12C167.76 40.096 167.904 43.6 167.904 47.632V67H158.328V17.176H171.648L187.776 56.776C186.816 50.344 186.336 44.44 186.336 39.064V17.176H195.912V67Z" fill="white"/>
<path d="M206.872 19.856C207.6 19.856 208.268 20.024 208.876 20.36C209.484 20.696 209.964 21.168 210.316 21.776C210.668 22.376 210.844 23.052 210.844 23.804C210.844 24.556 210.668 25.236 210.316 25.844C209.964 26.444 209.484 26.912 208.876 27.248C208.268 27.584 207.6 27.752 206.872 27.752C206.144 27.752 205.472 27.584 204.856 27.248C204.248 26.912 203.764 26.444 203.404 25.844C203.052 25.236 202.876 24.556 202.876 23.804C202.876 23.052 203.052 22.376 203.404 21.776C203.764 21.168 204.248 20.696 204.856 20.36C205.472 20.024 206.144 19.856 206.872 19.856ZM206.872 20.732C206.304 20.732 205.792 20.864 205.336 21.128C204.888 21.384 204.536 21.744 204.28 22.208C204.024 22.672 203.896 23.204 203.896 23.804C203.896 24.404 204.024 24.936 204.28 25.4C204.536 25.864 204.888 26.224 205.336 26.48C205.792 26.736 206.304 26.864 206.872 26.864C207.44 26.864 207.948 26.736 208.396 26.48C208.844 26.224 209.196 25.864 209.452 25.4C209.708 24.936 209.836 24.404 209.836 23.804C209.836 23.204 209.708 22.672 209.452 22.208C209.196 21.744 208.84 21.384 208.384 21.128C207.936 20.864 207.432 20.732 206.872 20.732ZM206.896 21.452C207.48 21.452 207.988 21.644 208.42 22.028L207.88 22.724C207.736 22.612 207.596 22.536 207.46 22.496C207.324 22.448 207.176 22.424 207.016 22.424C206.728 22.424 206.496 22.536 206.32 22.76C206.152 22.976 206.068 23.32 206.068 23.792C206.068 24.256 206.148 24.6 206.308 24.824C206.476 25.048 206.704 25.16 206.992 25.16C207.184 25.16 207.356 25.132 207.508 25.076C207.668 25.012 207.824 24.92 207.976 24.8L208.468 25.532C208.02 25.94 207.5 26.144 206.908 26.144C206.268 26.144 205.76 25.94 205.384 25.532C205.008 25.124 204.82 24.544 204.82 23.792C204.82 23.312 204.908 22.896 205.084 22.544C205.268 22.192 205.516 21.924 205.828 21.74C206.148 21.548 206.504 21.452 206.896 21.452Z" fill="white"/>
</svg>
