<svg width="211" height="51" viewBox="0 0 211 51" fill="none" xmlns="http://www.w3.org/2000/svg">
<path fill-rule="evenodd" clip-rule="evenodd" d="M0.0536442 10.7628C0.111546 22.3739 0.0936647 22.0841 0.891093 24.3551C1.65957 26.5431 3.28139 28.7644 5.0535 30.0559C6.33699 30.9912 8.2574 31.8706 10.0308 32.3348C11.3522 32.6808 11.6248 32.7043 14.42 32.7117C17.7567 32.7205 18.7263 32.5627 21.161 31.6142C24.8124 30.192 27.6413 27.2155 28.765 23.6131C29.3601 21.7054 29.3922 21.0253 29.3922 10.3049V0L24.6734 0.0356165L19.9547 0.0710981L19.8838 10.3918L19.8128 20.7125L19.4888 21.4743C19.0754 22.4461 18.1934 23.3991 17.3165 23.8216C15.9354 24.4869 13.624 24.5168 12.1304 23.8888C10.9311 23.3845 10.0227 22.1903 9.68352 20.6721C9.5734 20.1792 9.52387 16.859 9.52387 9.98045V0.00364265H4.76186H0L0.0536442 10.7628ZM34.6431 16.2587V32.5172H39.3973H44.1515L44.1543 23.4444L44.1571 14.3717L50.4876 23.4444L56.8182 32.5172H61.5542H66.2904V16.2604V0.00364265H61.5372H56.784L56.7475 9.1525L56.7111 18.3012L50.4528 9.18622L44.1945 0.0710981L39.4188 0.0356165L34.6431 0V16.2587ZM28.2422 36.6356C26.0939 37.1314 24.174 38.5589 23.1952 40.3887C22.75 41.2208 22.2956 42.9008 22.2987 43.7027C22.3063 45.5709 23.1464 47.4799 24.567 48.8561C26.0747 50.3168 27.8159 51 30.0308 51C32.1937 51 33.8967 50.3473 35.4059 48.9398C36.9335 47.515 37.6642 45.8187 37.6565 43.7148C37.651 42.1682 37.3128 41.029 36.512 39.8601C34.691 37.2018 31.381 35.9113 28.2422 36.6356ZM43.1873 36.9095C41.3918 37.3689 39.8023 38.5101 38.9956 39.9191C38.4531 40.8667 38.0486 42.4878 38.0515 43.7027C38.0606 47.4502 40.2119 50.0757 43.772 50.684C46.8562 51.211 49.7943 50.1528 51.269 47.9837C51.6955 47.3563 52.3826 45.7541 52.3826 45.387C52.3826 45.3577 51.3076 45.3337 49.9937 45.3337H47.605L47.1594 45.8608C45.8889 47.3637 43.4823 46.9403 42.9063 45.1125C42.6016 44.1458 42.6822 42.7823 43.0889 42.0211C43.5602 41.1392 44.0191 40.8405 45.0076 40.7725C45.9707 40.7063 46.8357 41.0642 47.2242 41.6895L47.4767 42.0959H49.9297C51.2788 42.0959 52.3826 42.0636 52.3826 42.0241C52.3826 41.9847 52.2513 41.5819 52.0907 41.1288C51.3316 38.9864 49.6206 37.471 47.3172 36.9007C46.3038 36.6498 44.1845 36.6542 43.1873 36.9095ZM0.441218 43.7821V50.7469L5.08898 50.7025C9.52514 50.6603 9.77307 50.6444 10.5345 50.3538C11.4001 50.0232 12.2238 49.35 12.5988 48.6664C12.9774 47.9764 13.0241 46.3167 12.6853 45.5918C12.2831 44.7312 11.7399 44.1804 11.0133 43.8964C10.663 43.7593 10.3778 43.617 10.3796 43.5799C10.3813 43.5428 10.6417 43.3988 10.9582 43.26C12.9482 42.3871 13.215 39.205 11.4163 37.7956C10.3517 36.9613 10.0599 36.9188 5.01802 36.8656L0.441218 36.8175V43.7821ZM13.3556 43.7823V50.7302H17.826H22.2963V49.1112V47.4923H20.0966H17.8969V42.1633V36.8343H15.6263H13.3556V43.7823ZM52.8084 43.7823V50.7302H55.0763H57.3443L57.3825 47.7523L57.4206 44.7744L59.5393 47.7523L61.658 50.7302H64.329C65.7981 50.7302 67 50.699 67 50.661C67 50.6229 65.8632 49.0597 64.474 47.187C63.0847 45.3144 61.8992 43.7059 61.8396 43.6127C61.7497 43.4721 64.0691 40.2518 66.4059 37.2728L66.7498 36.8343L64.1431 36.8378L61.5362 36.8412L59.4784 39.7197L57.4206 42.598L57.3823 39.7162L57.3442 36.8343H55.0762H52.8084V43.7823ZM31.1661 39.2492C31.8297 39.542 32.5752 40.2492 32.7895 40.7893C33.2037 41.8339 32.7972 43.2275 31.8649 43.9579L31.3207 44.3844L31.6337 45.7037C31.9898 47.2048 32.0185 47.6399 31.7764 47.8701C31.6642 47.9766 31.0654 48.032 30.0244 48.032C28.6362 48.032 28.4121 47.9997 28.1921 47.7687C27.952 47.5165 27.958 47.4417 28.3362 45.9677L28.7307 44.43L28.1535 43.9343C27.8362 43.6617 27.474 43.2336 27.349 42.9829C27.0287 42.3413 27.0554 41.1291 27.4041 40.4794C28.0857 39.209 29.8024 38.6478 31.1661 39.2492ZM7.67498 40.5409C8.05404 40.8671 8.05602 41.6025 7.67895 41.961C7.43968 42.1884 7.20595 42.2308 6.18883 42.2308H4.98254V41.2021V40.1733L6.18486 40.2333C7.08858 40.2784 7.45856 40.3547 7.67498 40.5409ZM7.9547 45.5292C8.15139 45.6984 8.24662 45.9469 8.24662 46.2913C8.24662 47.0594 7.90545 47.2225 6.2991 47.2225H4.98254V46.1946V45.1666L6.32266 45.2223C7.37383 45.266 7.72579 45.3323 7.9547 45.5292Z" fill="#839BF0"/>
<path d="M114.4 0.175998L100.072 50H87.184L72.352 0.175998H83.656L93.808 41.216L103.6 0.175998H114.4ZM132.356 0.175998C138.836 0.175998 143.852 1.52 147.404 4.208C151.004 6.896 152.804 10.904 152.804 16.232C152.804 21.8 151.028 26 147.476 28.832C143.924 31.616 139.172 33.008 133.22 33.008H127.532V50H116.948V0.175998H132.356ZM132.356 25.232C135.428 25.232 137.78 24.536 139.412 23.144C141.044 21.752 141.86 19.448 141.86 16.232C141.86 10.616 138.644 7.808 132.212 7.808H127.532V25.232H132.356ZM195.192 50H181.584L165.744 10.472C166.176 13.88 166.512 17.096 166.752 20.12C167.04 23.096 167.184 26.6 167.184 30.632V50H157.608V0.175998H170.928L187.056 39.776C186.096 33.344 185.616 27.44 185.616 22.064V0.175998H195.192V50Z" fill="white"/>
<path d="M202.872 1.856C203.6 1.856 204.268 2.024 204.876 2.36C205.484 2.696 205.964 3.168 206.316 3.776C206.668 4.376 206.844 5.052 206.844 5.804C206.844 6.556 206.668 7.236 206.316 7.844C205.964 8.444 205.484 8.912 204.876 9.248C204.268 9.584 203.6 9.752 202.872 9.752C202.144 9.752 201.472 9.584 200.856 9.248C200.248 8.912 199.764 8.444 199.404 7.844C199.052 7.236 198.876 6.556 198.876 5.804C198.876 5.052 199.052 4.376 199.404 3.776C199.764 3.168 200.248 2.696 200.856 2.36C201.472 2.024 202.144 1.856 202.872 1.856ZM202.872 2.732C202.304 2.732 201.792 2.864 201.336 3.128C200.888 3.384 200.536 3.744 200.28 4.208C200.024 4.672 199.896 5.204 199.896 5.804C199.896 6.404 200.024 6.936 200.28 7.4C200.536 7.864 200.888 8.224 201.336 8.48C201.792 8.736 202.304 8.864 202.872 8.864C203.44 8.864 203.948 8.736 204.396 8.48C204.844 8.224 205.196 7.864 205.452 7.4C205.708 6.936 205.836 6.404 205.836 5.804C205.836 5.204 205.708 4.672 205.452 4.208C205.196 3.744 204.84 3.384 204.384 3.128C203.936 2.864 203.432 2.732 202.872 2.732ZM202.896 3.452C203.48 3.452 203.988 3.644 204.42 4.028L203.88 4.724C203.736 4.612 203.596 4.536 203.46 4.496C203.324 4.448 203.176 4.424 203.016 4.424C202.728 4.424 202.496 4.536 202.32 4.76C202.152 4.976 202.068 5.32 202.068 5.792C202.068 6.256 202.148 6.6 202.308 6.824C202.476 7.048 202.704 7.16 202.992 7.16C203.184 7.16 203.356 7.132 203.508 7.076C203.668 7.012 203.824 6.92 203.976 6.8L204.468 7.532C204.02 7.94 203.5 8.144 202.908 8.144C202.268 8.144 201.76 7.94 201.384 7.532C201.008 7.124 200.82 6.544 200.82 5.792C200.82 5.312 200.908 4.896 201.084 4.544C201.268 4.192 201.516 3.924 201.828 3.74C202.148 3.548 202.504 3.452 202.896 3.452Z" fill="white"/>
</svg>
