<svg width="58" height="46" viewBox="0 0 58 46" fill="none" xmlns="http://www.w3.org/2000/svg">
<path fill-rule="evenodd" clip-rule="evenodd" d="M0.936003 10.4696C0.984571 20.7147 0.969572 20.459 1.63845 22.4628C2.28305 24.3933 3.64343 26.3533 5.12987 27.4929C6.20646 28.3182 7.8173 29.0941 9.30481 29.5037C10.4132 29.809 10.6419 29.8297 12.9865 29.8363C15.7853 29.844 16.5986 29.7047 18.6408 28.8679C21.7036 27.613 24.0765 24.9866 25.019 21.8081C25.5182 20.1248 25.5451 19.5248 25.5451 10.0656V0.972992L21.587 1.00442L17.629 1.03573L17.5695 10.1422L17.5099 19.2487L17.2382 19.9209C16.8914 20.7784 16.1516 21.6193 15.416 21.9921C14.2576 22.5791 12.3188 22.6055 11.066 22.0514C10.06 21.6064 9.29803 20.5527 9.01352 19.2131C8.92115 18.7781 8.8796 15.8486 8.8796 9.77927V0.976206H4.88525H0.891006L0.936003 10.4696ZM29.9495 15.3189V29.6646H33.9373H37.9252L37.9275 21.6593L37.9299 13.6539L43.2399 21.6593L48.55 29.6646H52.5226H56.4953V15.3204V0.976206H52.5083H48.5213L48.4907 9.04872L48.4601 17.1211L43.2107 9.07848L37.9612 1.03573L33.9554 1.00442L29.9495 0.972992V15.3189ZM24.5805 33.2985C22.7785 33.736 21.1681 34.9956 20.3471 36.6101C19.9737 37.3443 19.5925 38.8266 19.5951 39.5342C19.6015 41.1826 20.3062 42.867 21.4977 44.0813C22.7624 45.3702 24.2229 45.973 26.0808 45.973C27.895 45.973 29.3235 45.3971 30.5894 44.1551C31.8707 42.898 32.4836 41.4013 32.4772 39.5449C32.4726 38.1802 32.1889 37.175 31.5172 36.1437C29.9898 33.7981 27.2133 32.6594 24.5805 33.2985ZM37.1164 33.5402C35.6103 33.9455 34.2771 34.9525 33.6005 36.1957C33.1454 37.0318 32.8061 38.4622 32.8085 39.5342C32.8161 42.8408 34.6206 45.1575 37.6068 45.6942C40.1939 46.1592 42.6584 45.2254 43.8953 43.3115C44.253 42.758 44.8294 41.3443 44.8294 41.0204C44.8294 40.9945 43.9277 40.9733 42.8256 40.9733H40.822L40.4482 41.4384C39.3825 42.7645 37.3639 42.3909 36.8807 40.7781C36.6251 39.9252 36.6927 38.7221 37.0339 38.0505C37.4292 37.2723 37.8141 37.0088 38.6433 36.9488C39.4511 36.8903 40.1767 37.2061 40.5026 37.7579L40.7144 38.1164H42.7719C43.9035 38.1164 44.8294 38.088 44.8294 38.0531C44.8294 38.0183 44.7193 37.6629 44.5846 37.2631C43.9478 35.3728 42.5127 34.0356 40.5806 33.5325C39.7305 33.311 37.9529 33.315 37.1164 33.5402ZM1.2611 39.6043V45.7497L5.15963 45.7105C8.88067 45.6733 9.08864 45.6592 9.72728 45.4028C10.4534 45.1111 11.1443 44.5171 11.4588 43.914C11.7764 43.3051 11.8156 41.8407 11.5314 41.2011C11.1941 40.4417 10.7384 39.9557 10.1289 39.7051C9.83513 39.5842 9.59586 39.4586 9.59741 39.4258C9.59884 39.3931 9.81727 39.2661 10.0827 39.1436C11.7519 38.3734 11.9757 35.5656 10.467 34.322C9.57396 33.5859 9.32921 33.5484 5.10011 33.5015L1.2611 33.459V39.6043ZM12.0937 39.6044V45.7349H15.8434H19.5931V44.3064V42.878H17.748H15.9029V38.1759V33.4739H13.9983H12.0937V39.6044ZM45.1865 39.6044V45.7349H47.0889H48.9913L49.0233 43.1074L49.0553 40.4798L50.8324 43.1074L52.6096 45.7349H54.85C56.0823 45.7349 57.0905 45.7074 57.0905 45.6738C57.0905 45.6403 56.1369 44.261 54.9717 42.6086C53.8063 40.9563 52.8119 39.537 52.7619 39.4548C52.6865 39.3307 54.6321 36.4893 56.5922 33.8608L56.8806 33.4739L54.6941 33.477L52.5074 33.48L50.7814 36.0198L49.0553 38.5595L49.0232 36.0167L48.9911 33.4739H47.0888H45.1865V39.6044ZM27.0331 35.6047C27.5897 35.863 28.215 36.487 28.3948 36.9635C28.7422 37.8852 28.4012 39.1149 27.6192 39.7594L27.1627 40.1357L27.4253 41.2998C27.724 42.6243 27.748 43.0082 27.5449 43.2113C27.4509 43.3053 26.9486 43.3541 26.0754 43.3541C24.911 43.3541 24.723 43.3257 24.5385 43.1219C24.3371 42.8993 24.3421 42.8333 24.6593 41.5327L24.9902 40.1759L24.5061 39.7386C24.2399 39.498 23.9361 39.1203 23.8313 38.8991C23.5626 38.3329 23.585 37.2634 23.8775 36.6901C24.4492 35.5692 25.8892 35.074 27.0331 35.6047ZM7.32876 36.7444C7.64672 37.0322 7.64838 37.6811 7.33209 37.9974C7.13139 38.1981 6.93534 38.2354 6.08218 38.2354H5.07035V37.3278V36.42L6.07885 36.473C6.83689 36.5127 7.14723 36.5801 7.32876 36.7444ZM7.56339 41.1458C7.72838 41.2951 7.80825 41.5144 7.80825 41.8183C7.80825 42.496 7.52208 42.6399 6.17468 42.6399H5.07035V41.7329V40.8259L6.19444 40.875C7.07616 40.9136 7.37138 40.972 7.56339 41.1458Z" fill="black"/>
</svg>
