<svg width="205" height="51" viewBox="0 0 205 51" fill="none" xmlns="http://www.w3.org/2000/svg">
<path fill-rule="evenodd" clip-rule="evenodd" d="M0.0509219 10.7628C0.105885 22.3739 0.0889116 22.0841 0.845873 24.3551C1.57535 26.5431 3.11487 28.7644 4.79705 30.0559C6.01541 30.9912 7.83837 31.8706 9.52177 32.3348C10.7761 32.6808 11.0349 32.7043 13.6882 32.7117C16.8556 32.7205 17.776 32.5627 20.0872 31.6142C23.5532 30.192 26.2386 27.2155 27.3053 23.6131C27.8702 21.7054 27.9006 21.0253 27.9006 10.3049V0L23.4214 0.0356165L18.9421 0.0710982L18.8747 10.3918L18.8074 20.7125L18.4998 21.4743C18.1074 22.4461 17.2701 23.3991 16.4377 23.8216C15.1267 24.4869 12.9326 24.5168 11.5149 23.8888C10.3764 23.3845 9.51409 22.1903 9.19212 20.6721C9.08758 20.1792 9.04057 16.859 9.04057 9.98045V0.00364265H4.52022H0L0.0509219 10.7628ZM32.8851 16.2587V32.5172H37.398H41.9109L41.9136 23.4444L41.9163 14.3717L47.9256 23.4444L53.9349 32.5172H58.4306H62.9264V16.2604V0.00364265H58.4144H53.9024L53.8678 9.1525L53.8332 18.3012L47.8925 9.18622L41.9518 0.0710982L37.4185 0.0356165L32.8851 0V16.2587ZM26.809 36.6356C24.7697 37.1314 22.9473 38.5589 22.0182 40.3887C21.5956 41.2208 21.1642 42.9008 21.1672 43.7027C21.1743 45.5709 21.9718 47.4799 23.3203 48.8561C24.7515 50.3168 26.4043 51 28.5068 51C30.56 51 32.1766 50.3473 33.6092 48.9398C35.0592 47.515 35.7529 45.8187 35.7456 43.7148C35.7403 42.1682 35.4193 41.029 34.6591 39.8601C32.9306 37.2018 29.7885 35.9113 26.809 36.6356ZM40.9957 36.9095C39.2913 37.3689 37.7825 38.5101 37.0168 39.9191C36.5017 40.8667 36.1178 42.4878 36.1205 43.7027C36.1291 47.4502 38.1713 50.0757 41.5507 50.684C44.4785 51.211 47.2675 50.1528 48.6673 47.9837C49.0721 47.3563 49.7244 45.7541 49.7244 45.387C49.7244 45.3577 48.7039 45.3337 47.4567 45.3337H45.1892L44.7662 45.8608C43.5603 47.3637 41.2758 46.9403 40.729 45.1125C40.4397 44.1458 40.5162 42.7823 40.9023 42.0211C41.3497 41.1392 41.7853 40.8405 42.7237 40.7725C43.6378 40.7063 44.4589 41.0642 44.8278 41.6895L45.0674 42.0959H47.396C48.6766 42.0959 49.7244 42.0636 49.7244 42.0241C49.7244 41.9847 49.5998 41.5819 49.4473 41.1288C48.7267 38.9864 47.1026 37.471 44.916 36.9007C43.954 36.6498 41.9423 36.6542 40.9957 36.9095ZM0.418828 43.7821V50.7469L4.83073 50.7025C9.04178 50.6603 9.27713 50.6444 9.99987 50.3538C10.8216 50.0232 11.6035 49.35 11.9594 48.6664C12.3188 47.9764 12.3632 46.3167 12.0416 45.5918C11.6598 44.7312 11.1441 44.1804 10.4544 43.8964C10.1219 43.7593 9.85114 43.617 9.8529 43.5799C9.85451 43.5428 10.1017 43.3988 10.4021 43.26C12.2911 42.3871 12.5444 39.205 10.837 37.7956C9.82636 36.9613 9.54938 36.9188 4.76338 36.8656L0.418828 36.8175V43.7821ZM12.6779 43.7823V50.7302H16.9214H21.1649V49.1112V47.4923H19.0768H16.9887V42.1633V36.8343H14.8333H12.6779V43.7823ZM50.1285 43.7823V50.7302H52.2814H54.4343L54.4705 47.7523L54.5068 44.7744L56.5179 47.7523L58.5291 50.7302H61.0645C62.4591 50.7302 63.6 50.699 63.6 50.661C63.6 50.6229 62.5209 49.0597 61.2022 47.187C59.8834 45.3144 58.7581 43.7059 58.7015 43.6127C58.6161 43.4721 60.8179 40.2518 63.0361 37.2728L63.3625 36.8343L60.8881 36.8379L58.4135 36.8412L56.4601 39.7197L54.5068 42.598L54.4704 39.7162L54.4342 36.8343H52.2813H50.1285V43.7823ZM29.5846 39.2492C30.2145 39.542 30.9221 40.2492 31.1256 40.7893C31.5188 41.8339 31.1328 43.2275 30.2479 43.9579L29.7313 44.3844L30.0284 45.7037C30.3664 47.2048 30.3936 47.6399 30.1638 47.8701C30.0574 47.9766 29.4889 48.032 28.5008 48.032C27.183 48.032 26.9703 47.9997 26.7615 47.7687C26.5335 47.5165 26.5392 47.4417 26.8982 45.9677L27.2727 44.43L26.7248 43.9343C26.4236 43.6617 26.0798 43.2336 25.9611 42.9829C25.6571 42.3413 25.6824 41.1291 26.0134 40.4794C26.6604 39.209 28.2901 38.6478 29.5846 39.2492ZM7.2855 40.5409C7.64533 40.8671 7.64721 41.6025 7.28928 41.961C7.06215 42.1884 6.84027 42.2308 5.87477 42.2308H4.7297V41.2021V40.1733L5.871 40.2333C6.72886 40.2784 7.08006 40.3547 7.2855 40.5409ZM7.55103 45.5292C7.73774 45.6984 7.82813 45.9469 7.82813 46.2913C7.82813 47.0594 7.50428 47.2225 5.97945 47.2225H4.7297V46.1946V45.1666L6.00181 45.2223C6.99964 45.266 7.33373 45.3323 7.55103 45.5292Z" fill="white"/>
<path d="M107.4 0.175998L93.072 50H80.184L65.352 0.175998H76.656L86.808 41.216L96.6 0.175998H107.4ZM125.356 0.175998C131.836 0.175998 136.852 1.52 140.404 4.208C144.004 6.896 145.804 10.904 145.804 16.232C145.804 21.8 144.028 26 140.476 28.832C136.924 31.616 132.172 33.008 126.22 33.008H120.532V50H109.948V0.175998H125.356ZM125.356 25.232C128.428 25.232 130.78 24.536 132.412 23.144C134.044 21.752 134.86 19.448 134.86 16.232C134.86 10.616 131.644 7.808 125.212 7.808H120.532V25.232H125.356ZM188.192 50H174.584L158.744 10.472C159.176 13.88 159.512 17.096 159.752 20.12C160.04 23.096 160.184 26.6 160.184 30.632V50H150.608V0.175998H163.928L180.056 39.776C179.096 33.344 178.616 27.44 178.616 22.064V0.175998H188.192V50Z" fill="white"/>
<path d="M196.872 1.856C197.6 1.856 198.268 2.024 198.876 2.36C199.484 2.696 199.964 3.168 200.316 3.776C200.668 4.376 200.844 5.052 200.844 5.804C200.844 6.556 200.668 7.236 200.316 7.844C199.964 8.444 199.484 8.912 198.876 9.248C198.268 9.584 197.6 9.752 196.872 9.752C196.144 9.752 195.472 9.584 194.856 9.248C194.248 8.912 193.764 8.444 193.404 7.844C193.052 7.236 192.876 6.556 192.876 5.804C192.876 5.052 193.052 4.376 193.404 3.776C193.764 3.168 194.248 2.696 194.856 2.36C195.472 2.024 196.144 1.856 196.872 1.856ZM196.872 2.732C196.304 2.732 195.792 2.864 195.336 3.128C194.888 3.384 194.536 3.744 194.28 4.208C194.024 4.672 193.896 5.204 193.896 5.804C193.896 6.404 194.024 6.936 194.28 7.4C194.536 7.864 194.888 8.224 195.336 8.48C195.792 8.736 196.304 8.864 196.872 8.864C197.44 8.864 197.948 8.736 198.396 8.48C198.844 8.224 199.196 7.864 199.452 7.4C199.708 6.936 199.836 6.404 199.836 5.804C199.836 5.204 199.708 4.672 199.452 4.208C199.196 3.744 198.84 3.384 198.384 3.128C197.936 2.864 197.432 2.732 196.872 2.732ZM196.896 3.452C197.48 3.452 197.988 3.644 198.42 4.028L197.88 4.724C197.736 4.612 197.596 4.536 197.46 4.496C197.324 4.448 197.176 4.424 197.016 4.424C196.728 4.424 196.496 4.536 196.32 4.76C196.152 4.976 196.068 5.32 196.068 5.792C196.068 6.256 196.148 6.6 196.308 6.824C196.476 7.048 196.704 7.16 196.992 7.16C197.184 7.16 197.356 7.132 197.508 7.076C197.668 7.012 197.824 6.92 197.976 6.8L198.468 7.532C198.02 7.94 197.5 8.144 196.908 8.144C196.268 8.144 195.76 7.94 195.384 7.532C195.008 7.124 194.82 6.544 194.82 5.792C194.82 5.312 194.908 4.896 195.084 4.544C195.268 4.192 195.516 3.924 195.828 3.74C196.148 3.548 196.504 3.452 196.896 3.452Z" fill="white"/>
</svg>
