<svg width="473" height="379" viewBox="0 0 473 379" fill="none" xmlns="http://www.w3.org/2000/svg">
<path fill-rule="evenodd" clip-rule="evenodd" d="M1.269 80.75C1.677 166.815 1.55101 164.667 7.17001 181.5C12.585 197.718 24.013 214.183 36.5 223.756C45.544 230.689 59.076 237.207 71.572 240.648C80.883 243.213 82.804 243.387 102.5 243.442C126.012 243.507 132.844 242.337 150 235.307C175.729 224.765 195.663 202.702 203.581 176C207.774 161.86 208 156.819 208 77.356V0.972992L174.75 1.23699L141.5 1.49999L141 78L140.5 154.5L138.217 160.147C135.304 167.35 129.089 174.414 122.91 177.546C113.178 182.477 96.891 182.699 86.367 178.044C77.916 174.306 71.515 165.454 69.125 154.201C68.349 150.547 68 125.937 68 74.951V0.999992H34.445H0.891006L1.269 80.75ZM245 121.487V242H278.5H312L312.02 174.75L312.04 107.5L356.647 174.75L401.255 242H434.627H468V121.5V0.999992H434.507H401.014L400.757 68.814L400.5 136.627L356.402 69.064L312.303 1.49999L278.652 1.23699L245 0.972992V121.487ZM199.897 272.527C184.759 276.202 171.231 286.783 164.334 300.346C161.197 306.514 157.995 318.966 158.017 324.91C158.07 338.758 163.99 352.908 174 363.109C184.624 373.936 196.893 379 212.5 379C227.741 379 239.741 374.162 250.375 363.729C261.139 353.168 266.288 340.595 266.234 325C266.195 313.536 263.812 305.092 258.169 296.428C245.338 276.724 222.014 267.158 199.897 272.527ZM305.206 274.557C292.554 277.962 281.354 286.421 275.67 296.865C271.847 303.889 268.997 315.905 269.017 324.91C269.081 352.688 284.24 372.149 309.326 376.658C331.059 380.564 351.762 372.72 362.153 356.642C365.158 351.992 370 340.116 370 337.395C370 337.178 362.425 337 353.167 337H336.335L333.195 340.907C324.243 352.047 307.285 348.908 303.226 335.36C301.079 328.195 301.647 318.088 304.513 312.446C307.834 305.909 311.067 303.695 318.033 303.191C324.819 302.7 330.914 305.353 333.652 309.988L335.431 313H352.716C362.222 313 370 312.761 370 312.468C370 312.176 369.075 309.19 367.943 305.832C362.594 289.952 350.538 278.719 334.307 274.492C327.166 272.632 312.233 272.665 305.206 274.557ZM4.00001 325.499V377.124L36.75 376.795C68.009 376.482 69.756 376.364 75.121 374.21C81.221 371.76 87.025 366.77 89.667 361.703C92.335 356.588 92.664 344.286 90.277 338.913C87.443 332.534 83.615 328.451 78.495 326.346C76.027 325.33 74.017 324.275 74.03 324C74.042 323.725 75.877 322.658 78.107 321.629C92.129 315.159 94.009 291.572 81.335 281.125C73.833 274.941 71.777 274.626 36.25 274.232L4.00001 273.875V325.499ZM95 325.5V377H126.5H158V365V353H142.5H127V313.5V274H111H95V325.5ZM373 325.5V377H388.981H404.962L405.231 354.927L405.5 332.854L420.429 354.927L435.358 377H454.179C464.531 377 473 376.769 473 376.487C473 376.205 464.99 364.618 455.201 350.737C445.411 336.857 437.058 324.934 436.638 324.243C436.004 323.201 452.348 299.331 468.814 277.25L471.237 274L452.869 274.026L434.5 274.051L420 295.387L405.5 316.722L405.23 295.361L404.961 274H388.98H373V325.5ZM220.5 291.9C225.176 294.07 230.429 299.312 231.939 303.315C234.858 311.058 231.993 321.388 225.424 326.802L221.589 329.963L223.795 339.742C226.304 350.869 226.506 354.094 224.8 355.8C224.01 356.59 219.79 357 212.455 357C202.673 357 201.094 356.761 199.544 355.049C197.852 353.179 197.894 352.625 200.559 341.699L203.339 330.301L199.272 326.627C197.036 324.606 194.484 321.433 193.603 319.575C191.346 314.819 191.534 305.834 193.991 301.018C198.794 291.602 210.891 287.442 220.5 291.9ZM54.972 301.474C57.643 303.892 57.657 309.343 55 312C53.314 313.686 51.667 314 44.5 314H36V306.375V298.749L44.472 299.194C50.84 299.528 53.447 300.094 54.972 301.474ZM56.943 338.449C58.329 339.703 59 341.545 59 344.098C59 349.791 56.596 351 45.277 351H36V343.381V335.761L45.443 336.174C52.85 336.498 55.33 336.989 56.943 338.449Z" fill="black"/>
</svg>
