<svg width="70" height="56" viewBox="0 0 70 56" fill="none" xmlns="http://www.w3.org/2000/svg">
<path fill-rule="evenodd" clip-rule="evenodd" d="M0.946002 12.5799C1.00536 25.1017 0.987031 24.7892 1.80455 27.2383C2.59239 29.5979 4.25508 31.9934 6.07184 33.3862C7.38767 34.3949 9.35647 35.3432 11.1745 35.8439C12.5292 36.217 12.8087 36.2424 15.6743 36.2504C19.0951 36.2598 20.0891 36.0896 22.5852 35.0668C26.3286 33.533 29.2288 30.323 30.3808 26.4381C30.9909 24.3808 31.0238 23.6474 31.0238 12.0861V0.972992L26.1861 1.0114L21.3485 1.04967L21.2758 12.1798L21.203 23.31L20.8709 24.1316C20.4471 25.1796 19.5428 26.2073 18.6438 26.663C17.2279 27.3804 14.8583 27.4127 13.3271 26.7355C12.0975 26.1916 11.1663 24.9037 10.8185 23.2665C10.7056 22.7349 10.6548 19.1543 10.6548 11.7362V0.97692H5.77285H0.891006L0.946002 12.5799ZM36.407 18.5068V36.0406H41.281H46.155L46.1579 26.2562L46.1608 16.4718L52.6508 26.2562L59.1409 36.0406H63.9962H68.8518V18.5087V0.97692H63.9788H59.1058L59.0684 10.8433L59.031 20.7096L52.6151 10.8797L46.199 1.04967L41.3031 1.0114L36.407 0.972992V18.5068ZM29.8448 40.482C27.6424 41.0167 25.6742 42.5561 24.6707 44.5294C24.2143 45.4268 23.7484 47.2385 23.7516 48.1033C23.7593 50.1181 24.6206 52.1768 26.077 53.661C27.6227 55.2362 29.4078 55.973 31.6785 55.973C33.8959 55.973 35.6418 55.2691 37.189 53.7512C38.7551 52.2146 39.5042 50.3854 39.4964 48.1164C39.4907 46.4485 39.144 45.22 38.323 43.9594C36.4562 41.0926 33.0627 39.7009 29.8448 40.482ZM45.1665 40.7773C43.3257 41.2727 41.6962 42.5035 40.8692 44.023C40.313 45.0449 39.8984 46.7932 39.9013 48.1033C39.9106 52.1448 42.1161 54.9762 45.7659 55.6322C48.9279 56.2005 51.94 55.0593 53.4518 52.7201C53.889 52.0435 54.5935 50.3157 54.5935 49.9198C54.5935 49.8882 53.4914 49.8623 52.1444 49.8623H49.6955L49.2387 50.4308C47.9362 52.0515 45.469 51.5948 44.8784 49.6237C44.566 48.5813 44.6487 47.1108 45.0657 46.2899C45.5488 45.3388 46.0192 45.0167 47.0327 44.9434C48.02 44.8719 48.9068 45.2579 49.3052 45.9323L49.564 46.3705H52.0788C53.4619 46.3705 54.5935 46.3357 54.5935 46.2931C54.5935 46.2506 54.4589 45.8162 54.2942 45.3276C53.516 43.0172 51.7619 41.3829 49.4005 40.7679C48.3615 40.4973 46.1889 40.5021 45.1665 40.7773ZM1.34334 48.189V55.7L6.10821 55.6522C10.6562 55.6066 10.9103 55.5895 11.6909 55.2761C12.5784 54.9196 13.4228 54.1936 13.8072 53.4564C14.1954 52.7122 14.2433 50.9224 13.896 50.1406C13.4837 49.2126 12.9267 48.6185 12.1818 48.3122C11.8227 48.1644 11.5303 48.0109 11.5322 47.9709C11.5339 47.9309 11.8009 47.7757 12.1253 47.626C14.1654 46.6846 14.439 43.2529 12.595 41.7329C11.5035 40.8332 11.2044 40.7874 6.03547 40.7301L1.34334 40.6781V48.189ZM14.5831 48.1892V55.682H19.1661H23.7492V53.9361V52.1902H21.494H19.2389V46.4433V40.6963H16.911H14.5831V48.1892ZM55.03 48.1892V55.682H57.3551H59.6802L59.7194 52.4706L59.7585 49.2591L61.9305 52.4706L64.1026 55.682H66.8409C68.347 55.682 69.5792 55.6484 69.5792 55.6074C69.5792 55.5663 68.4138 53.8805 66.9896 51.8609C65.5652 49.8415 64.3499 48.1068 64.2888 48.0063C64.1966 47.8547 66.5745 44.3818 68.9702 41.1692L69.3227 40.6963L66.6503 40.7001L63.9778 40.7037L61.8681 43.8079L59.7585 46.912L59.7192 43.8042L59.6801 40.6963H57.355H55.03V48.1892ZM32.8424 43.3006C33.5227 43.6163 34.287 44.379 34.5067 44.9614C34.9314 46.088 34.5146 47.5909 33.5588 48.3786L33.0009 48.8385L33.3218 50.2613C33.6869 51.8802 33.7162 52.3494 33.468 52.5976C33.3531 52.7125 32.7391 52.7722 31.6719 52.7722C30.2487 52.7722 30.019 52.7374 29.7935 52.4883C29.5473 52.2162 29.5534 52.1356 29.9412 50.546L30.3456 48.8877L29.7539 48.3531C29.4286 48.0591 29.0573 47.5974 28.9291 47.3271C28.6007 46.6352 28.6281 45.3279 28.9856 44.6272C29.6844 43.2573 31.4444 42.652 32.8424 43.3006ZM8.75937 44.6936C9.14798 45.0454 9.15002 45.8384 8.76345 46.225C8.51815 46.4703 8.27852 46.516 7.23578 46.516H5.99909V45.4066V44.2971L7.23171 44.3618C8.1582 44.4104 8.5375 44.4928 8.75937 44.6936ZM9.04614 50.0731C9.24779 50.2556 9.34542 50.5236 9.34542 50.895C9.34542 51.7233 8.99565 51.8992 7.34883 51.8992H5.99909V50.7907V49.6821L7.37298 49.7421C8.45064 49.7893 8.81146 49.8607 9.04614 50.0731Z" fill="white"/>
</svg>
